<svg xmlns="http://www.w3.org/2000/svg" width="56" height="56" viewBox="0 0 56 56" xmlns:xlink="http://www.w3.org/1999/xlink">
  <defs>
    <rect id="a" width="14" height="21"/>
  </defs>
  <g fill="none" fill-rule="evenodd">
    <rect width="18" height="28" x="14" y="14" stroke="#000000" stroke-width="2" rx="1"/>
    <g transform="translate(16 16)">
      <mask id="b" fill="white">
        <use xlink:href="#a"/>
      </mask>
      <use fill="#000000" xlink:href="#a"/>
      <path fill="#FFFFFF" d="M-8 6L1.5 15.5 2 16 7 11 7 9 2 14-7.5 4.5-8 4-13 9-13 11-8 6zM12 6L21.5 15.5 22 16 27 11 27 9 22 14 12.5 4.5 12 4 7 9 7 11 12 6z" mask="url(#b)"/>
    </g>
    <circle cx="23" cy="39" r="1" fill="#000000"/>
    <path fill="#000000" d="M22,12 C22,5.372583 27.372583,0 34,0 C40.627417,0 46,5.372583 46,12 C46,18.627417 40.627417,24 34,24 L34,22 C39.5228475,22 44,17.5228475 44,12 C44,6.4771525 39.5228475,2 34,2 C28.4771525,2 24,6.4771525 24,12 L22,12 Z"/>
    <path fill="#000000" d="M26,12 C26,7.581722 29.581722,4 34,4 C38.418278,4 42,7.581722 42,12 C42,16.418278 38.418278,20 34,20 L34,18 C37.3137085,18 40,15.3137085 40,12 C40,8.6862915 37.3137085,6 34,6 C30.6862915,6 28,8.6862915 28,12 L26,12 Z"/>
    <path fill="#000000" d="M30,12 C30,9.790861 31.790861,8 34,8 C36.209139,8 38,9.790861 38,12 C38,14.209139 36.209139,16 34,16 L34,14.3268166 C34,13.0417513 32.9490471,12 31.6731834,12 L30,12 Z"/>
  </g>
</svg>
