<?xml version="1.0" standalone="no"?>
<!DOCTYPE svg PUBLIC "-//W3C//DTD SVG 20010904//EN"
 "http://www.w3.org/TR/2001/REC-SVG-20010904/DTD/svg10.dtd">
<svg version="1.0" xmlns="http://www.w3.org/2000/svg"
 width="16.000000pt" height="16.000000pt" viewBox="0 0 16.000000 16.000000"
 preserveAspectRatio="xMidYMid meet">
<g transform="translate(0.000000,16.000000) scale(0.006154,-0.006154)"
fill="#000000" stroke="none">
<path d="M1189 2226 c-2 -2 -22 -6 -44 -10 -393 -58 -721 -372 -804 -770 -29
-136 -19 -384 19 -471 5 -11 14 -38 21 -60 28 -92 115 -237 198 -327 29 -32
56 -58 61 -58 4 0 52 64 106 143 54 78 112 162 129 187 17 25 71 103 118 173
48 70 102 149 120 175 18 26 66 95 106 155 40 59 76 107 81 107 4 0 36 -42 70
-92 35 -51 86 -127 115 -168 29 -41 76 -111 107 -155 276 -404 361 -525 368
-525 13 0 107 107 149 169 109 161 161 323 167 516 3 137 -5 204 -42 325 -98
323 -362 571 -702 661 -69 19 -330 38 -343 25z"/>
<path d="M1144 833 c-82 -120 -161 -236 -176 -258 -15 -22 -28 -43 -28 -47 0
-5 162 -8 360 -8 198 0 360 3 360 8 0 4 -37 61 -83 127 -45 67 -124 183 -176
258 -51 75 -97 137 -101 137 -4 0 -74 -98 -156 -217z"/>
</g>
</svg>
